<?xml version="1.0" encoding="UTF-8" standalone="no"?>
<!-- Created with Inkscape (http://www.inkscape.org/) -->

<svg
   xmlns:dc="http://purl.org/dc/elements/1.1/"
   xmlns:cc="http://creativecommons.org/ns#"
   xmlns:rdf="http://www.w3.org/1999/02/22-rdf-syntax-ns#"
   xmlns:svg="http://www.w3.org/2000/svg"
   xmlns="http://www.w3.org/2000/svg"
   xmlns:sodipodi="http://sodipodi.sourceforge.net/DTD/sodipodi-0.dtd"
   xmlns:inkscape="http://www.inkscape.org/namespaces/inkscape"
   width="390"
   height="200"
   id="svg2"
   version="1.1"
   inkscape:version="0.48.4 r9939"
   sodipodi:docname="Neues Dokument 1">
  <defs
     id="defs4" />
  <sodipodi:namedview
     id="base"
     pagecolor="#ffffff"
     bordercolor="#666666"
     borderopacity="1.0"
     inkscape:pageopacity="0.0"
     inkscape:pageshadow="2"
     inkscape:zoom="0.49497475"
     inkscape:cx="498.2834"
     inkscape:cy="590.46841"
     inkscape:document-units="px"
     inkscape:current-layer="layer1"
     showgrid="false"
     showborder="true"
     inkscape:window-width="1920"
     inkscape:window-height="1056"
     inkscape:window-x="1680"
     inkscape:window-y="24"
     inkscape:window-maximized="1" />
  <metadata
     id="metadata7">
    <rdf:RDF>
      <cc:Work
         rdf:about="">
        <dc:format>image/svg+xml</dc:format>
        <dc:type
           rdf:resource="http://purl.org/dc/dcmitype/StillImage" />
        <dc:title></dc:title>
      </cc:Work>
    </rdf:RDF>
  </metadata>
  <g
     inkscape:label="Ebene 1"
     inkscape:groupmode="layer"
     id="layer1"
     transform="translate(0,-852.36212)">
    <flowRoot
       xml:space="preserve"
       id="flowRoot2997"
       style="font-size:40px;font-style:normal;font-weight:normal;line-height:125%;letter-spacing:0px;word-spacing:0px;fill:#000000;fill-opacity:1;stroke:none;font-family:Sans"><flowRegion
         id="flowRegion2999"><rect
           id="rect3001"
           width="165.66502"
           height="187.88837"
           x="216.17264"
           y="377.58029" /></flowRegion><flowPara
         id="flowPara3003"></flowPara></flowRoot>    <flowRoot
       xml:space="preserve"
       id="flowRoot3009"
       style="font-size:144px;font-style:normal;font-weight:normal;line-height:125%;letter-spacing:0px;word-spacing:0px;fill:#000000;fill-opacity:1;stroke:none;font-family:Sans"><flowRegion
         id="flowRegion3011"><rect
           id="rect3013"
           width="133.34013"
           height="107.07617"
           x="254.55844"
           y="432.12851"
           style="font-size:144px" /></flowRegion><flowPara
         id="flowPara3015"></flowPara></flowRoot>    <g
       id="g3033"
       transform="translate(-1.3180801,-0.48445354)">
      <g
         id="flowRoot2985"
         style="font-size:82.68948364px;font-style:italic;font-variant:normal;font-weight:bold;font-stretch:normal;text-align:start;line-height:125%;letter-spacing:0px;word-spacing:0px;writing-mode:lr-tb;text-anchor:start;fill:#000000;fill-opacity:1;stroke:none;font-family:Droid Serif;-inkscape-font-specification:Droid Serif Bold Italic"
         transform="matrix(2.3092424,0,0,2.9617859,-30.526292,-143.8473)">
        <path
           id="path3029"
           style="line-height:125%;font-family:Droid Serif;-inkscape-font-specification:Droid Serif Bold Italic"
           d="m 41.191692,372.57718 3.472312,0 c 2.503265,3e-5 4.616259,-0.37681 6.338989,-1.13052 1.749578,-0.75365 3.162727,-1.80342 4.239451,-3.1493 1.076646,-1.37275 1.857243,-2.98777 2.341792,-4.84509 0.484467,-1.88416 0.726721,-3.94332 0.726763,-6.17749 -4.2e-5,-2.07257 -0.242296,-3.83564 -0.726763,-5.28922 -0.457632,-1.45347 -1.103643,-2.63783 -1.938035,-3.55306 -0.83447,-0.91513 -1.843862,-1.5746 -3.028179,-1.97841 -1.157472,-0.43062 -2.422577,-0.64596 -3.795318,-0.64601 l -1.816908,0 -5.814104,26.7691 m -3.956821,18.29021 c -0.08077,0.29609 -0.161523,0.63256 -0.242254,1.00939 -0.05386,0.37685 -0.08077,0.67293 -0.08075,0.88826 -2e-5,0.59219 0.148024,1.0767 0.444133,1.45353 0.296068,0.34993 0.713283,0.63256 1.251648,0.84789 0.53832,0.18843 1.170872,0.32301 1.897659,0.40376 0.753655,0.0538 1.561169,0.0808 2.422543,0.0808 l 2.745549,0 -0.928641,4.40095 -30.079915,0 0.888266,-4.40095 1.090144,0 c 0.861348,0 1.695779,-0.0538 2.503295,-0.1615 0.834429,-0.10767 1.588108,-0.33646 2.261041,-0.68639 0.672923,-0.34992 1.251641,-0.84788 1.736156,-1.4939 0.511419,-0.64601 0.8748,-1.50735 1.090145,-2.58405 l 8.438526,-39.68934 c 0.349907,-1.42655 0.524868,-2.36865 0.524884,-2.8263 -1.6e-5,-0.59212 -0.14806,-1.07663 -0.444133,-1.45352 -0.296104,-0.37679 -0.713319,-0.65942 -1.251647,-0.84789 -0.51144,-0.21529 -1.143993,-0.34987 -1.897659,-0.40376 -0.726775,-0.0807 -1.52083,-0.12107 -2.382168,-0.12113 l -1.049769,0 0.888266,-4.36058 23.660175,0 c 3.23002,6e-5 6.150528,0.34999 8.761532,1.04977 2.610918,0.67299 4.818122,1.69584 6.621619,3.06856 1.830315,1.34591 3.230005,3.02823 4.199075,5.04696 0.99588,1.99192 1.493847,4.30679 1.493902,6.94463 -5.5e-5,1.39973 -0.134641,2.88017 -0.403757,4.44133 -0.269226,1.56123 -0.753734,3.09551 -1.453526,4.60283 -0.672982,1.50739 -1.615081,2.94746 -2.826301,4.3202 -1.211321,1.34589 -2.759056,2.5437 -4.643208,3.59344 -1.857328,1.02288 -4.104907,1.84385 -6.742746,2.46292 -2.611,0.61912 -5.693011,0.92867 -9.246041,0.92864 l -6.258237,0 -2.987804,13.4855"
           inkscape:connector-curvature="0" />
        <path
           id="path3031"
           style="line-height:125%;font-family:Droid Serif;-inkscape-font-specification:Droid Serif Bold Italic"
           d="m 96.102676,372.57718 3.472312,0 c 2.503262,3e-5 4.616262,-0.37681 6.338992,-1.13052 1.74958,-0.75365 3.16272,-1.80342 4.23945,-3.1493 1.07664,-1.37275 1.85724,-2.98777 2.34179,-4.84509 0.48447,-1.88416 0.72672,-3.94332 0.72676,-6.17749 -4e-5,-2.07257 -0.24229,-3.83564 -0.72676,-5.28922 -0.45763,-1.45347 -1.10364,-2.63783 -1.93803,-3.55306 -0.83447,-0.91513 -1.84387,-1.5746 -3.02818,-1.97841 -1.15748,-0.43062 -2.42258,-0.64596 -3.79532,-0.64601 l -1.81691,0 -5.814104,26.7691 m -3.956821,18.29021 c -0.08077,0.29609 -0.161523,0.63256 -0.242254,1.00939 -0.05385,0.37685 -0.08077,0.67293 -0.08075,0.88826 -2e-5,0.59219 0.148024,1.0767 0.444133,1.45353 0.296068,0.34993 0.713283,0.63256 1.251648,0.84789 0.53832,0.18843 1.170872,0.32301 1.897659,0.40376 0.753655,0.0538 1.561169,0.0808 2.422543,0.0808 l 2.745546,0 -0.928638,4.40095 -30.079915,0 0.888266,-4.40095 1.090144,0 c 0.861348,0 1.695779,-0.0538 2.503295,-0.1615 0.834429,-0.10767 1.588108,-0.33646 2.261041,-0.68639 0.672923,-0.34992 1.251641,-0.84788 1.736156,-1.4939 0.511419,-0.64601 0.8748,-1.50735 1.090145,-2.58405 L 87.5834,350.93584 c 0.349907,-1.42655 0.524868,-2.36865 0.524885,-2.8263 -1.7e-5,-0.59212 -0.148061,-1.07663 -0.444133,-1.45352 -0.296105,-0.37679 -0.71332,-0.65942 -1.251648,-0.84789 -0.51144,-0.21529 -1.143993,-0.34987 -1.897659,-0.40376 -0.726775,-0.0807 -1.52083,-0.12107 -2.382168,-0.12113 l -1.049769,0 0.888266,-4.36058 23.660176,0 c 3.23002,6e-5 6.15053,0.34999 8.76153,1.04977 2.61092,0.67299 4.81812,1.69584 6.62162,3.06856 1.83031,1.34591 3.23,3.02823 4.19907,5.04696 0.99588,1.99192 1.49385,4.30679 1.49391,6.94463 -6e-5,1.39973 -0.13465,2.88017 -0.40376,4.44133 -0.26923,1.56123 -0.75374,3.09551 -1.45353,4.60283 -0.67298,1.50739 -1.61508,2.94746 -2.8263,4.3202 -1.21132,1.34589 -2.75905,2.5437 -4.64321,3.59344 -1.85732,1.02288 -4.1049,1.84385 -6.74274,2.46292 -2.611,0.61912 -5.69301,0.92867 -9.24604,0.92864 l -6.258239,0 -2.987804,13.4855"
           inkscape:connector-curvature="0" />
      </g>
      <g
         id="text3005"
         style="font-size:216.25286865px;font-style:italic;font-variant:normal;font-weight:bold;font-stretch:normal;text-align:start;line-height:125%;letter-spacing:0px;word-spacing:0px;writing-mode:lr-tb;text-anchor:start;fill:#ff0000;fill-opacity:1;stroke:none;font-family:Droid Serif;-inkscape-font-specification:Droid Serif Bold Italic"
         transform="matrix(0.97046968,-0.08018106,0.08681709,1.023256,0,0)">
        <path
           id="path3026"
           style="line-height:125%;fill:#ff0000;font-family:Droid Serif;-inkscape-font-specification:Droid Serif Bold Italic"
           d="m 246.67652,1034.1033 c -8.94019,0 -16.75401,-0.8095 -23.44148,-2.4286 -6.68753,-1.6191 -12.24872,-3.8365 -16.68357,-6.6523 -4.43488,-2.8158 -7.77863,-6.1244 -10.03126,-9.9257 -2.18224,-3.8717 -3.27336,-8.0602 -3.27336,-12.5655 0,-3.37889 0.66875,-6.33547 2.00625,-8.86972 1.40789,-2.53417 3.34375,-4.64602 5.80758,-6.33553 2.5342,-1.68943 5.49078,-2.95654 8.86974,-3.80132 3.44933,-0.84469 7.25064,-1.26706 11.40396,-1.26711 -3e-5,6.61715 0.70392,12.35433 2.11185,17.21153 1.40786,4.85725 3.37891,8.90495 5.91316,12.14315 2.53417,3.1677 5.56115,5.526 9.08093,7.0746 3.51969,1.5487 7.3914,2.3231 11.61515,2.3231 4.08283,0 7.70816,-0.5632 10.876,-1.6895 3.16769,-1.1967 5.84269,-2.7806 8.025,-4.7517 2.25256,-2.0414 3.94203,-4.3996 5.06843,-7.0746 1.19663,-2.7454 1.79498,-5.6668 1.79507,-8.76419 -9e-5,-3.02695 -0.38726,-5.80754 -1.16152,-8.34179 -0.70403,-2.53417 -2.04153,-4.99799 -4.0125,-7.39146 -1.97113,-2.39337 -4.68133,-4.82199 -8.1306,-7.28586 -3.44942,-2.46376 -7.88429,-5.17396 -13.30462,-8.1306 -5.63164,-3.0973 -10.59447,-6.26507 -14.8885,-9.5033 -4.22373,-3.30848 -7.77867,-6.86341 -10.66482,-10.66481 -2.81582,-3.80124 -4.96286,-7.95453 -6.44112,-12.45989 -1.40793,-4.57556 -2.11187,-9.71437 -2.11185,-15.41646 -2e-5,-6.4762 1.30228,-12.42456 3.90691,-17.84509 2.60458,-5.42026 6.3355,-10.06631 11.19278,-13.93817 4.8572,-3.94196 10.73516,-6.96893 17.6339,-9.08093 6.89863,-2.18208 14.64205,-3.2732 23.23029,-3.27336 8.02492,1.6e-4 15.0292,0.63371 21.01285,1.90066 5.98345,1.26726 10.94628,2.99193 14.8885,5.17402 4.01239,2.18239 7.00416,4.75179 8.97534,7.70823 1.97093,2.95672 2.95646,6.12449 2.95658,9.5033 -1.2e-4,5.8429 -2.21756,10.45375 -6.65231,13.83258 -4.43499,3.30867 -11.68564,4.96295 -21.75199,4.96284 -1e-4,-3.23805 -0.31688,-6.61699 -0.95033,-10.13686 -0.63365,-3.51961 -1.75997,-6.72257 -3.37895,-9.60889 -1.61918,-2.95644 -3.80142,-5.38506 -6.54672,-7.28586 -2.74549,-1.90052 -6.23003,-2.85085 -10.45363,-2.85099 -2.88627,1.4e-4 -5.77245,0.45771 -8.65856,1.3727 -2.81586,0.91527 -5.35007,2.28797 -7.60264,4.11809 -2.2527,1.83041 -4.08296,4.15343 -5.4908,6.96909 -1.40795,2.74553 -2.1119,6.01888 -2.11184,9.82008 -6e-5,3.80143 0.5983,7.03959 1.79506,9.71448 1.19666,2.67511 2.99172,5.17413 5.38521,7.49705 2.39336,2.25274 5.38513,4.47017 8.97534,6.65231 3.59006,2.11194 7.81374,4.47016 12.67106,7.07468 10.9111,5.91325 18.9713,12.45996 24.18062,19.64015 5.2091,7.10994 7.81371,15.27573 7.81383,24.4974 -1.2e-4,7.67307 -1.40802,14.50135 -4.22369,20.48485 -2.74551,5.9836 -6.72281,11.0168 -11.93192,15.0997 -5.13892,4.0829 -11.36885,7.2155 -18.68983,9.3977 -7.32113,2.1119 -15.52212,3.1678 -24.60298,3.1678"
           inkscape:connector-curvature="0" />
      </g>
    </g>
  </g>
</svg>
